<svg width="26" height="21" viewBox="0 0 26 21" fill="none" xmlns="http://www.w3.org/2000/svg">
<path d="M25.14 15.394C24.132 16.906 22.872 18.058 21.36 18.85C19.848 19.642 18.276 20.038 16.644 20.038C16.188 20.038 15.684 20.002 15.132 19.93C14.58 19.858 14.016 19.75 13.44 19.606C12.888 19.438 12.348 19.234 11.82 18.994C11.292 18.73 10.812 18.43 10.38 18.094C10.14 18.31 9.864 18.538 9.552 18.778C9.24 18.994 8.88 19.198 8.472 19.39C8.088 19.582 7.656 19.738 7.176 19.858C6.72 19.978 6.204 20.038 5.628 20.038C4.836 20.038 4.116 19.918 3.468 19.678C2.844 19.414 2.304 19.066 1.848 18.634C1.416 18.202 1.08 17.698 0.84 17.122C0.6 16.522 0.48 15.886 0.48 15.214C0.48 14.422 0.624 13.678 0.912 12.982C1.224 12.286 1.632 11.638 2.136 11.038C2.64 10.438 3.204 9.91 3.828 9.454C4.476 8.998 5.136 8.626 5.808 8.338C5.808 7.57 5.964 6.73 6.276 5.818C6.612 4.882 7.068 4.018 7.644 3.226C8.22 2.41 8.892 1.738 9.66 1.21C10.428 0.657998 11.256 0.381998 12.144 0.381998C12.792 0.381998 13.332 0.573999 13.764 0.957999C14.196 1.318 14.412 1.846 14.412 2.542C14.412 3.166 14.148 3.754 13.62 4.306C13.116 4.834 12.504 5.338 11.784 5.818C11.064 6.274 10.32 6.682 9.552 7.042C8.808 7.402 8.208 7.714 7.752 7.978C7.776 9.61 8.124 11.17 8.796 12.658C9.468 14.146 10.368 15.466 11.496 16.618C12.384 15.826 13.188 14.974 13.908 14.062C14.628 13.15 15.312 12.31 15.96 11.542C16.632 10.75 17.292 10.102 17.94 9.598C18.612 9.07 19.32 8.806 20.064 8.806C20.688 8.806 21.204 8.974 21.612 9.31C22.044 9.646 22.26 10.09 22.26 10.642C22.26 10.834 22.2 11.05 22.08 11.29C21.984 11.53 21.852 11.734 21.684 11.902C21.492 11.494 21.18 11.158 20.748 10.894C20.316 10.606 19.788 10.462 19.164 10.462C18.708 10.462 18.276 10.558 17.868 10.75C17.484 10.918 17.112 11.158 16.752 11.47C16.416 11.758 16.08 12.094 15.744 12.478C15.408 12.862 15.072 13.27 14.736 13.702C13.656 14.974 12.672 16.03 11.784 16.87C12.504 17.59 13.368 18.202 14.376 18.706C15.384 19.21 16.416 19.462 17.472 19.462C18.216 19.462 18.948 19.354 19.668 19.138C20.388 18.922 21.072 18.622 21.72 18.238C22.368 17.854 22.968 17.41 23.52 16.906C24.072 16.402 24.552 15.85 24.96 15.25L25.14 15.394ZM12.972 2.362C12.972 1.33 12.54 0.813999 11.676 0.813999C11.148 0.813999 10.584 1.066 9.984 1.57C9.408 2.05 8.916 2.758 8.508 3.694C8.148 4.534 7.932 5.278 7.86 5.926C7.788 6.55 7.752 7.102 7.752 7.582C8.448 7.27 9.108 6.946 9.732 6.61C10.38 6.274 10.944 5.902 11.424 5.494C11.904 5.086 12.276 4.63 12.54 4.126C12.828 3.598 12.972 3.01 12.972 2.362ZM2.424 14.638C2.424 15.214 2.508 15.778 2.676 16.33C2.868 16.882 3.12 17.374 3.432 17.806C3.768 18.214 4.164 18.55 4.62 18.814C5.076 19.054 5.592 19.174 6.168 19.174C7.056 19.174 7.812 19.042 8.436 18.778C9.06 18.514 9.6 18.202 10.056 17.842C8.736 16.738 7.692 15.382 6.924 13.774C6.18 12.142 5.808 10.462 5.808 8.734C5.256 8.974 4.764 9.31 4.332 9.742C3.924 10.15 3.576 10.618 3.288 11.146C3 11.674 2.784 12.238 2.64 12.838C2.496 13.438 2.424 14.038 2.424 14.638Z" fill="#404951"/>
</svg>
